<svg width="1728" height="209" viewBox="0 0 1728 209" fill="none" xmlns="http://www.w3.org/2000/svg">
<path fill-rule="evenodd" clip-rule="evenodd" d="M1728 165L1678 174C1637.68 185.98 1579.08 182.97 1497 165C1413.48 147.029 1269.58 203.666 1187.5 179.705C1105.42 155.745 1069.92 167.725 987.84 179.705C905.76 191.686 822.24 203.666 740.16 203.666C658.08 203.666 576 215.647 493.92 203.666C411.84 191.686 329.76 173.715 246.24 179.705C164.16 185.696 137 201.5 85.5 201.5L-0.00012325 195.5L-0.000140341 0.000227361L41.7599 0.00022371C82.0798 0.000220185 164.16 0.000213009 246.24 0.000205834C329.76 0.000198532 411.84 0.000191356 493.92 0.000184181C576 0.000177005 658.08 0.000169829 740.16 0.000162654C822.24 0.000155478 905.76 0.000148176 987.84 0.000141001C1069.92 0.000133825 1152 0.000126649 1234.08 0.000119474C1316.16 0.000112298 1398.24 0.000105122 1481.76 9.78209e-05C1563.84 9.06453e-05 1645.92 8.34696e-05 1686.24 7.99447e-05L1728 7.62939e-05L1728 165Z" fill="#F4F4F4"/>
</svg>
